<?xml version="1.0" encoding="UTF-8"?>
<!DOCTYPE svg PUBLIC "-//W3C//DTD SVG 1.1//EN" "http://www.w3.org/Graphics/SVG/1.1/DTD/svg11.dtd">
<!-- Creator: CorelDRAW 2021.5 (Evaluation Version) -->
<svg xmlns="http://www.w3.org/2000/svg" xml:space="preserve" width="14.18mm" height="1.6098mm" version="1.1" style="shape-rendering:geometricPrecision; text-rendering:geometricPrecision; image-rendering:optimizeQuality; fill-rule:evenodd; clip-rule:evenodd"
viewBox="0 0 158.39 17.98"
 xmlns:xlink="http://www.w3.org/1999/xlink"
 xmlns:xodm="http://www.corel.com/coreldraw/odm/2003">
 <defs>
  <style type="text/css">
   <![CDATA[
    .fil1 {fill:#EF8641}
    .fil0 {fill:#EF8641;fill-rule:nonzero}
   ]]>
  </style>
 </defs>
 <g id="图层_x0020_1">
  <metadata id="CorelCorpID_0Corel-Layer"/>
  <g id="_1913906903152">
   <path class="fil0" d="M50.88 10.06c0.69,0.17 1.2,0.33 1.72,0.49l0 -0.49c0,-0.33 -0.17,-0.66 -0.86,-0.82 -0.17,0 -0.51,-0.17 -0.86,-0.17l-1.72 0 -2.4 0c-1.03,0.17 -1.89,0.33 -3.09,0.33l1.38 -2.14c1.37,-0.17 2.58,-0.17 3.78,-0.33l2.06 0 1.03 0c3.09,0 5.15,0.16 6.36,0.66 1.2,0.49 1.89,1.15 1.89,2.3l0 5.43 -7.04 0.16 0 -0.82c-0.69,0.17 -1.38,0.33 -2.23,0.49 0,0 -0.17,0.17 -0.34,0.17 -0.86,0.16 -1.72,0.16 -2.58,0.16 -1.89,0 -3.43,-0.16 -4.64,-0.82 -1.37,-0.49 -1.89,-1.15 -1.89,-1.97 0,-0.82 0.69,-1.48 1.89,-1.97 1.2,-0.49 2.92,-0.82 4.98,-0.82 0.69,0 1.55,0 2.23,0.16l0.34 0zm0 3.29l0 0c0.51,0 1.03,-0.16 1.37,-0.16 0.34,-0.16 0.51,-0.33 0.51,-0.66 0,-0.17 -0.17,-0.33 -0.51,-0.49 -0.34,-0.17 -0.86,-0.17 -1.37,-0.17 -0.52,0 -0.86,0 -1.2,0.17 -0.34,0.16 -0.51,0.33 -0.51,0.49 0,0.33 0.17,0.49 0.51,0.66 0.34,0 0.69,0.16 1.2,0.16z"/>
   <path class="fil0" d="M122.68 12.7l0 0.05c0,0 0.35,0.08 0.98,0.12 0.18,0.07 0.31,0.04 0.46,0.02 0.99,0.01 2.42,-0.1 4.16,-0.65 0.2,-0.06 0.39,-0.13 0.59,-0.2l3.26 2.3c-1.37,0.49 -2.75,0.82 -4.12,0.99 -1.37,0.16 -2.92,0.33 -4.64,0.33l-1.03 0c-2.58,-0.16 -4.98,-0.49 -6.7,-1.32 -1.89,-0.66 -2.92,-1.81 -2.92,-3.13 0,-1.15 1.03,-2.3 2.92,-3.13 1.89,-0.66 4.12,-0.99 6.7,-1.15l1.03 0c1.89,0 3.61,0.16 5.15,0.66 1.54,0.33 2.92,0.99 3.95,1.81l-9.79 3.29zm-0.34 -2.14l0 0 2.75 -0.82c-0.34,-0.17 -0.69,-0.17 -1.03,-0.33l-1.03 0 -0.69 0c-0.69,0 -1.2,0.16 -1.72,0.33 -0.51,0.33 -0.86,0.66 -0.86,0.99 0,0.16 0,0.16 0.17,0.33 0,0 0,0.17 0.17,0.33l2.23 -0.82z"/>
   <path class="fil0" d="M155.45 0c1.63,0 2.94,1.26 2.94,2.82 0,1.56 -1.32,2.82 -2.94,2.82 -1.63,0 -2.94,-1.26 -2.94,-2.82 0,-1.56 1.32,-2.82 2.94,-2.82zm0 0.55l0 0c-1.31,0 -2.37,1.02 -2.37,2.27 0,1.26 1.06,2.27 2.37,2.27 1.31,0 2.37,-1.02 2.37,-2.27 0,-1.26 -1.06,-2.27 -2.37,-2.27z"/>
   <path class="fil1" d="M154.55 3.02l0 1.44 -0.52 0 0 -3.36 1.78 0c0.84,0.01 1.27,0.31 1.27,0.9 0.01,0.37 -0.17,0.64 -0.53,0.81 0.3,0.07 0.45,0.28 0.46,0.63l0.03 0.6c0.01,0.11 0.02,0.18 0.04,0.22 0.02,0.04 0.07,0.08 0.15,0.12l0 0.08 -0.64 0c-0.05,-0.15 -0.08,-0.43 -0.08,-0.84 0.02,-0.41 -0.21,-0.61 -0.7,-0.6l-1.26 0zm0 -1.53l0 0 0 1.14 1.21 0c0.53,0.01 0.79,-0.18 0.79,-0.57 -0,-0.38 -0.23,-0.57 -0.69,-0.57l-1.3 0z"/>
   <polygon class="fil0" points="133.85,15.49 133.85,3.97 141.41,3.81 141.41,10.39 144.84,6.77 152.58,7.1 148.45,10.56 150.31,12.21 156.01,17.14 147.59,17.63 141.41,11.21 141.41,15.16 "/>
   <path class="fil1" d="M16.71 4.15c0,0 -10.86,0.89 -15.37,5.29 -4.51,4.4 3.87,7.32 3.87,7.32 0,0 6.69,1.63 13.85,1.13l-0.04 -3.54c0,0 -9.9,0.95 -10.69,-2.58 -0.78,-3.53 9.99,-4.16 9.99,-4.16l-1.61 -3.46z"/>
   <path class="fil1" d="M63.42 15.49l0 -8.23 6.87 -0.33 0 1.15c0.69,-0.49 1.37,-0.66 2.23,-0.82 0.86,-0.33 1.89,-0.33 2.92,-0.33 1.89,0 3.26,0.16 4.12,0.66 0.86,0.49 1.38,1.32 1.38,2.3l0 5.43 -7.56 0.16 0 -4.94c0,-0.33 0,-0.49 -0.34,-0.49 -0.17,-0.16 -0.51,-0.16 -0.86,-0.16 -0.34,0 -0.69,0 -0.86,0.16 -0.34,0 -0.34,0.17 -0.34,0.49l0 4.77 -7.56 0.16z"/>
   <path class="fil1" d="M83.86 12.53c0.17,0.16 0.51,0.16 1.03,0.16 1.55,0.16 2.75,0.33 3.26,0.33 0.69,0 1.2,-0.17 1.72,-0.17 0.51,-0.16 0.69,-0.33 0.69,-0.49 0,-0.16 -0.34,-0.16 -1.2,-0.33 -0.34,0 -0.51,0 -0.69,-0.17 -1.89,-0.16 -3.26,-0.49 -3.95,-0.82 -0.86,-0.33 -1.2,-0.82 -1.2,-1.48 0,-0.82 0.86,-1.48 2.23,-1.97 1.55,-0.49 3.61,-0.66 6.18,-0.66 0.86,0 1.72,0 2.58,0 1.03,0 1.89,0.16 2.92,0.16l0 2.63c-0.86,-0.17 -1.55,-0.17 -2.23,-0.17 -0.69,0 -1.2,0 -1.72,0 -0.69,0 -1.2,0 -1.55,0 -0.34,0.17 -0.52,0.17 -0.52,0.33 0,0.16 0.52,0.33 1.55,0.49 0.34,0 0.69,0 1.03,0.17 1.55,0.16 2.75,0.49 3.44,0.82 0.69,0.33 1.03,0.82 1.03,1.32 0,0.99 -0.86,1.65 -2.4,2.14 -1.55,0.49 -3.61,0.82 -6.18,0.82 -1.03,0 -1.89,0 -2.92,-0.16 -1.03,0 -2.06,-0.16 -3.09,-0.16l0 -2.8z"/>
   <path class="fil1" d="M99.32 9.9l1.2 -2.63 0.86 0 0 -0.99 7.56 -1.48 0 2.47 2.06 0 0 2.63 -2.06 0 0 1.97c0,0.33 0,0.49 0.34,0.66 0.34,0.16 0.69,0.16 1.37,0.16 0.17,0 0.34,0 0.51,0 0.17,0 0.34,0 0.51,0l-1.2 2.8c-0.17,0 -0.52,0 -0.69,0 -0.34,0 -0.69,0 -1.03,0 -2.58,0 -4.47,-0.16 -5.5,-0.66 -1.2,-0.49 -1.89,-1.15 -1.89,-2.14l0 -2.8 -2.06 0z"/>
   <path class="fil1" d="M21.5 15.49l0 -11.36 7.39 -0.33 0 4.28c0.69,-0.33 1.37,-0.66 2.23,-0.82 0.86,-0.17 1.89,-0.33 2.75,-0.33 1.72,0 2.92,0.16 3.78,0.66 0.86,0.49 1.2,1.15 1.2,2.14l0 5.6 -7.39 0.16 0 -4.94c0,-0.33 -0.17,-0.49 -0.34,-0.49 -0.17,-0.16 -0.51,-0.16 -0.86,-0.16 -0.51,0 -0.86,0 -1.03,0.16 -0.17,0 -0.34,0.17 -0.34,0.49l0 4.77 -7.39 0.16z"/>
  </g>
 </g>
</svg>
