<?xml version="1.0" encoding="UTF-8"?>
<!DOCTYPE svg PUBLIC "-//W3C//DTD SVG 1.1//EN" "http://www.w3.org/Graphics/SVG/1.1/DTD/svg11.dtd">
<!-- Creator: CorelDRAW 2021.5 (Evaluation Version) -->
<svg xmlns="http://www.w3.org/2000/svg" xml:space="preserve" width="1.5629mm" height="1.5251mm" version="1.1" style="shape-rendering:geometricPrecision; text-rendering:geometricPrecision; image-rendering:optimizeQuality; fill-rule:evenodd; clip-rule:evenodd"
viewBox="0 0 0.26 0.25"
 xmlns:xlink="http://www.w3.org/1999/xlink"
 xmlns:xodm="http://www.corel.com/coreldraw/odm/2003">
 <defs>
  <style type="text/css">
   <![CDATA[
    .fil0 {fill:#A0D9F6}
   ]]>
  </style>
 </defs>
 <g id="图层_x0020_1">
  <metadata id="CorelCorpID_0Corel-Layer"/>
  <path class="fil0" d="M0.16 0c0.03,0.01 0.06,0.03 0.08,0.06l-0.04 0c-0,-0.01 -0.01,-0.02 -0.01,-0.02 -0.01,-0.01 -0.02,-0.02 -0.03,-0.03zm-0.14 0.06c0,-0 0,-0 0,-0.01 0.02,-0.03 0.04,-0.04 0.08,-0.05 -0.01,0.01 -0.02,0.02 -0.03,0.03 -0,0.01 -0.01,0.02 -0.01,0.02l-0.04 0zm0.11 0.19c0.02,-0 0.03,-0.02 0.04,-0.03 0,-0 0,-0.01 0.01,-0.01l-0.05 0 0 0.05zm-0.01 -0.05l-0.05 0c0,0 0,0.01 0.01,0.01 0.01,0.02 0.03,0.03 0.04,0.03l0 -0.05zm0.11 0c-0.02,0.02 -0.04,0.04 -0.08,0.05 0.01,-0.01 0.02,-0.02 0.03,-0.03 0,-0.01 0.01,-0.01 0.01,-0.02l0.04 0zm-0.13 0.05c-0.03,-0.01 -0.06,-0.03 -0.08,-0.05l0.04 0c0,0.01 0.01,0.01 0.01,0.02 0.01,0.01 0.02,0.02 0.03,0.03zm0.02 -0.25c-0.02,0 -0.03,0.01 -0.04,0.03 -0,0.01 -0.01,0.01 -0.01,0.02l0.05 0 0 -0.05zm0.01 0.05l0.05 0c-0,-0.01 -0.01,-0.01 -0.01,-0.02 -0.01,-0.02 -0.03,-0.03 -0.04,-0.03l0 0.05zm-0.12 0.01c-0.01,0.02 -0.01,0.03 -0.01,0.05l0 0 0.05 0 0 -0c0,-0.02 0,-0.03 0.01,-0.05l-0.04 0zm-0.01 0.06c0,0.02 0.01,0.04 0.02,0.05l0.04 0c-0,-0.02 -0.01,-0.03 -0.01,-0.05l-0.05 0zm0.12 0l-0.07 0c0,0.02 0,0.04 0.01,0.05l0.06 0 0 -0.05zm0 -0.06l-0.06 0c-0,0.02 -0.01,0.03 -0.01,0.05l-0 0 0.01 0 0.06 0 0 -0.05zm0.12 0c0.01,0.02 0.01,0.03 0.01,0.05l-0.05 0c-0,-0.02 -0,-0.04 -0.01,-0.05l0.04 0zm0.01 0.06c-0,0.02 -0.01,0.04 -0.02,0.05l-0.04 0c0,-0.02 0.01,-0.03 0.01,-0.05l0.05 0zm-0.12 0l0.06 0c-0,0.02 -0,0.04 -0.01,0.05l-0.05 0 0 -0.05zm0 -0.06l0.06 0c0,0.02 0.01,0.03 0.01,0.05l-0.06 0 0 -0.05z"/>
 </g>
</svg>
