<?xml version="1.0" encoding="UTF-8"?>
<!DOCTYPE svg PUBLIC "-//W3C//DTD SVG 1.1//EN" "http://www.w3.org/Graphics/SVG/1.1/DTD/svg11.dtd">
<!-- Creator: CorelDRAW 2021.5 (Evaluation Version) -->
<svg xmlns="http://www.w3.org/2000/svg" xml:space="preserve" width="1.8277mm" height="1.2625mm" version="1.1" style="shape-rendering:geometricPrecision; text-rendering:geometricPrecision; image-rendering:optimizeQuality; fill-rule:evenodd; clip-rule:evenodd"
viewBox="0 0 0.27 0.19"
 xmlns:xlink="http://www.w3.org/1999/xlink"
 xmlns:xodm="http://www.corel.com/coreldraw/odm/2003">
 <g id="图层_x0020_1">
  <metadata id="CorelCorpID_0Corel-Layer"/>
  <g id="_1913894832944">
   <path class="fil0" d="M0.03 0.02l0.11 0c0.01,0 0.02,0 0.02,0.01 -0.01,-0 -0.01,-0 -0.02,-0l-0.1 0c-0.02,0 -0.03,0.02 -0.03,0.04l0 0.04c0,0.01 -0,0.01 0,0.02 -0.01,-0.01 -0.01,-0.01 -0.01,-0.02l0 -0.05c0,-0.02 0.02,-0.04 0.03,-0.04z"/>
   <path class="fil0" d="M0.23 0.09l0 -0c0.01,-0.02 0,-0.04 -0.01,-0.05 -0.01,-0.01 -0.03,-0.01 -0.04,-0l-0.02 -0.01 -0.01 -0.01c-0,-0 -0,-0 0,-0l0.02 -0.01c0,-0 0,-0 0,0l0.01 0.01c0,-0 0,-0 0.01,-0l0 -0.01c0,-0 0,-0 0,-0l0.02 0c0,0 0,0 0,0l-0 0.01c0,0 0,0 0.01,0l0.01 -0.01c0,-0 0,-0 0,-0l0.01 0.01c0,0 0,0 0,0l-0.01 0.01c0,0 0,0 0.01,0.01l0.01 -0.01c0,-0 0,-0 0,0l0.01 0.02c0,0 0,0 -0,0l-0.01 0.01c0,0 0,0 0,0.01l0.01 0c0,0 0,0 0,0l-0 0.02c-0,0 -0,0 -0,0l-0.01 -0c-0,0 -0,0 -0,0.01l0.01 0.01c0,0 0,0 0,0l-0.01 0.01c-0,0 -0,0 -0,0l-0.01 -0.01c-0,-0 -0.01,-0.01 -0.01,-0.02z"/>
   <rect class="fil0" x="0.02" y="0.05" width="0.2" height="0.14" rx="0.04" ry="0.03"/>
  </g>
 </g>
</svg>
