<?xml version="1.0" encoding="UTF-8"?>
<!DOCTYPE svg PUBLIC "-//W3C//DTD SVG 1.1//EN" "http://www.w3.org/Graphics/SVG/1.1/DTD/svg11.dtd">
<!-- Creator: CorelDRAW 2021.5 (Evaluation Version) -->
<svg xmlns="http://www.w3.org/2000/svg" xml:space="preserve" width="2.0318mm" height="1.666mm" version="1.1" style="shape-rendering:geometricPrecision; text-rendering:geometricPrecision; image-rendering:optimizeQuality; fill-rule:evenodd; clip-rule:evenodd"
viewBox="0 0 1.79 1.46"
 xmlns:xlink="http://www.w3.org/1999/xlink"
 xmlns:xodm="http://www.corel.com/coreldraw/odm/2003">
 <defs>
  <style type="text/css">
   <![CDATA[
    .str0 {stroke:#332C2B;stroke-width:0.07;stroke-miterlimit:22.9256}
    .fil1 {fill:#332C2B;fill-rule:nonzero}
    .fil0 {fill:#A72185;fill-rule:nonzero}
   ]]>
  </style>
 </defs>
 <g id="图层_x0020_1">
  <metadata id="CorelCorpID_0Corel-Layer"/>
  <g id="_1913906858128">
   <path class="fil0" d="M1.13 0.46l0 0.55 0.34 0 -0.58 0.45 -0.58 -0.45 0.34 0 0 -0.55 0.25 0.19 0.25 -0.19zm0 0.27m0.17 0.27m-0.12 0.23m-0.58 0m-0.12 -0.23m0.17 -0.27m0.12 -0.18m0.25 0"/>
   <path class="fil1 str0" d="M0.23 0.03l1.33 0c0.05,0 0.1,0.02 0.14,0.05l0 0 0 0c0.04,0.03 0.06,0.08 0.06,0.13l0 0.44c0,0.05 -0.02,0.1 -0.06,0.13l0 -0c-0.04,0.03 -0.08,0.05 -0.14,0.05l-0.1 0 0 -0.07 0.1 0c0.03,0 0.06,-0.01 0.09,-0.03l0 -0c0.02,-0.02 0.04,-0.05 0.04,-0.08l0 -0.44c0,-0.03 -0.01,-0.06 -0.04,-0.08l-0 -0c-0.02,-0.02 -0.05,-0.03 -0.09,-0.03l-1.33 0c-0.03,0 -0.06,0.01 -0.09,0.03l-0 0c-0.02,0.02 -0.04,0.05 -0.04,0.08l0 0.44c0,0.03 0.01,0.06 0.04,0.08 0.02,0.02 0.05,0.03 0.09,0.03l0.09 0 0 0.07 -0.09 0c-0.05,0 -0.1,-0.02 -0.14,-0.05 -0.04,-0.03 -0.06,-0.08 -0.06,-0.13l0 -0.44c0,-0.05 0.02,-0.1 0.06,-0.13l-0 -0c0.04,-0.03 0.08,-0.05 0.14,-0.05z"/>
  </g>
 </g>
</svg>
